<?xml version="1.0" encoding="UTF-8"?>
<svg width="128px" height="128px" viewBox="0 0 128 128" version="1.1" xmlns="http://www.w3.org/2000/svg" xmlns:xlink="http://www.w3.org/1999/xlink">
    <title>ocean-logo</title>
    <defs>
        <linearGradient x1="72.3916061%" y1="91.3212917%" x2="72.3916061%" y2="4.34312393%" id="linearGradient-1">
            <stop stop-color="#296DCC" offset="0%"></stop>
            <stop stop-color="#243BB3" offset="100%"></stop>
        </linearGradient>
        <linearGradient x1="38.5956978%" y1="102.061223%" x2="26.6339089%" y2="4.85171275%" id="linearGradient-2">
            <stop stop-color="#178FE6" offset="0%"></stop>
            <stop stop-color="#1657D9" offset="100%"></stop>
        </linearGradient>
        <linearGradient x1="21.3244378%" y1="9.05478453%" x2="78.6529014%" y2="90.9436904%" id="linearGradient-3">
            <stop stop-color="#00BFFF" offset="0%"></stop>
            <stop stop-color="#0080FF" offset="100%"></stop>
        </linearGradient>
    </defs>
    <g id="ocean-logo" stroke="none" stroke-width="1" fill="none" fill-rule="evenodd">
        <g>
            <path d="M79.2,34.9972529 C81.7037745,36.9060965 82.9435668,40.2037423 82.0782194,43.4332627 C80.9346849,47.7009915 76.5479893,50.2336515 72.2802605,49.090117 C55.2093452,44.515979 37.6625625,54.6466187 33.0884246,71.717534 C28.5142866,88.7884493 38.6449263,106.335232 55.7158416,110.90937 C58.4541769,111.643105 61.2333182,112.008131 64.0055806,112.009666 C68.423858,112.012114 68.4149944,120.012111 63.9967171,120.009664 C59.8322642,120.007357 55.6638456,119.459856 51.5747369,118.364183 C25.9683639,111.502976 10.7724044,93.1828022 17.6336114,67.5764292 C20.1749031,58.0921994 25.3856817,50.0361266 32.2409386,44 L32,44 L32,28 L79.2,28 L79.2,34.9972529 Z" id="Combined-Shape" fill="url(#linearGradient-1)" fill-rule="evenodd"></path>
            <path d="M91,24.1482146 C92.4439956,26.3830136 92.7417861,29.2883575 91.5343233,31.8777698 C89.6670783,35.8820896 84.9072347,37.614531 80.9029149,35.747286 C75.7209201,33.3308821 70.2858704,32.1201557 64.9140185,32 L63.1342684,32 C48.394291,32.3294988 34.3984248,40.8284236 27.745873,55.094867 C18.4096481,75.1164658 27.0718552,98.9156841 47.093454,108.251909 C52.4697393,110.758912 58.2104774,112.015831 63.9997983,112.011039 C68.4180748,112.007381 68.4313205,120.007375 64.013044,120.011033 C55.8948045,120.017754 47.8404045,118.254264 40.3315618,114.752834 C12.3013235,101.682119 0.174233597,76.3632131 13.2449484,48.3329748 C16.8215802,40.6628632 21.9143405,34.1835353 28,29.0854311 L28,12 L91,12 L91,24.1482146 Z" id="Combined-Shape" fill="url(#linearGradient-2)" fill-rule="nonzero"></path>
            <path d="M64,128 C59.581722,128 56,124.418278 56,120 C56,115.581722 59.581722,112 64,112 C90.509668,112 112,90.509668 112,64 C112,37.490332 90.509668,16 64,16 C37.490332,16 16,37.490332 16,64 C16,76.9066984 21.1067552,88.9846418 30.0505395,97.9327885 C33.173972,101.057744 33.172737,106.123064 30.0477811,109.246497 C26.9228251,112.369929 21.8575054,112.368694 18.7340729,109.243738 C6.82111714,97.3249719 0,81.1924055 0,64 C0,28.653776 28.653776,0 64,0 C99.346224,0 128,28.653776 128,64 C128,99.346224 99.346224,128 64,128 Z" id="Outer" fill="url(#linearGradient-3)" fill-rule="nonzero" transform="translate(64.000000, 64.000000) rotate(215.000000) translate(-64.000000, -64.000000) "></path>
        </g>
    </g>
</svg>