<svg xmlns="http://www.w3.org/2000/svg" width="128" height="128" viewBox="0 0 128 128"><path fill="#fff" d="M40.25,116C88.56,116,115,76,115,41.29c0-1.14,0-2.27-.08-3.4A53.43,53.43,0,0,0,128,24.3a52.42,52.42,0,0,1-15.08,4.13,26.35,26.35,0,0,0,11.55-14.53,52.63,52.63,0,0,1-16.67,6.37A26.28,26.28,0,0,0,63,44.23,74.56,74.56,0,0,1,8.91,16.8,26.28,26.28,0,0,0,17,51.85,26.07,26.07,0,0,1,5.14,48.57c0,.11,0,.22,0,.33A26.27,26.27,0,0,0,26.21,74.65a26.22,26.22,0,0,1-11.86.45A26.29,26.29,0,0,0,38.88,93.34,52.7,52.7,0,0,1,6.26,104.58,53.41,53.41,0,0,1,0,104.22,74.35,74.35,0,0,0,40.25,116"/></svg>