<svg xmlns="http://www.w3.org/2000/svg" width="128" height="128" viewBox="0 0 128 128"><path fill="#fff" d="M86,85A10,10,0,1,1,96,75,10,10,0,0,1,86,85Zm1.76,16.43c-6.83,6.82-19.91,7.35-23.76,7.35s-16.93-.53-23.75-7.35a2.59,2.59,0,1,1,3.67-3.67c4.3,4.3,13.51,5.83,20.09,5.83s15.79-1.53,20.1-5.83a2.59,2.59,0,0,1,3.66,3.67ZM32,75A10,10,0,1,1,42,85,10,10,0,0,1,32,75Zm96-10a14,14,0,0,0-23.72-10.08C94.7,48,81.51,43.55,66.82,43L73.2,13,94,17.45a10,10,0,1,0,1-4.9L71.79,7.61a2.5,2.5,0,0,0-3,1.93L61.7,43c-14.91.41-28.31,4.88-38,11.87A14,14,0,1,0,8.28,77.77,27.66,27.66,0,0,0,7.94,82c0,21.55,25.08,39,56,39s56-17.47,56-39a27.7,27.7,0,0,0-.33-4.21A14,14,0,0,0,128,65Z"/></svg>