<?xml version="1.0" encoding="UTF-8"?>
<svg width="128px" height="128px" viewBox="0 0 128 128" version="1.1" xmlns="http://www.w3.org/2000/svg" xmlns:xlink="http://www.w3.org/1999/xlink">
    <title>ocean-logo</title>
    <defs>
        <linearGradient x1="68.940749%" y1="92.3076923%" x2="68.940749%" y2="15.3846154%" id="linearGradient-1">
            <stop stop-color="#296DCC" offset="0%"></stop>
            <stop stop-color="#243BB3" offset="100%"></stop>
        </linearGradient>
        <linearGradient x1="62.8047337%" y1="92.5925985%" x2="62.8047337%" y2="3.44834733%" id="linearGradient-2">
            <stop stop-color="#178FE6" offset="0%"></stop>
            <stop stop-color="#1657D9" offset="100%"></stop>
        </linearGradient>
        <linearGradient x1="50%" y1="100%" x2="50%" y2="0%" id="linearGradient-3">
            <stop stop-color="#00BFFF" offset="0%"></stop>
            <stop stop-color="#0080FF" offset="100%"></stop>
        </linearGradient>
    </defs>
    <g id="ocean-logo" stroke="none" stroke-width="1" fill="none" fill-rule="evenodd">
        <g fill-rule="nonzero">
            <path d="M24.0193807,100 L12,100 L12,28 L24,28 L24,16 L84,16 L84,39.0198623 C84.1911885,39.1730281 84.3809367,39.3286032 84.5692035,39.4865778 C87.9538008,42.3265922 88.3952725,47.3726369 85.5552582,50.7572342 C82.7152438,54.1418316 77.6691991,54.5833033 74.2846018,51.7432889 C71.3552292,49.2852535 67.7412438,47.9965551 64,47.999446 C46.326888,48 32,62.326888 32,80 C32,97.673112 46.326888,112 64,112 C68.418278,112 72,115.581722 72,120 C57.8822893,120 35.7921882,113.278113 24.0193807,100 Z" id="Inner" fill="url(#linearGradient-1)"></path>
            <path d="M64,32 C41.90861,32 24,49.90861 24,72 C24,94.09139 41.90861,112 64,112 C68.418278,112 72,115.581722 72,120 C59.2439121,120 36.7247575,113.055183 22.0854956,100 L12,100 L12,87.5605735 C11.3786139,86.4027867 10.8210269,85.2158028 10.3334191,83.9999141 L4,83.9999141 L4,43.9999141 L12,43.9999141 L12,28 L20,28 L20,19.9999141 L32,19.9999141 L32,11.9999141 L96,11.9999141 L96,28.2225265 C96.3508976,28.53662 96.6979469,28.8564663 97.0410196,29.1820302 C100.245925,32.2233721 100.37852,37.2869561 97.337178,40.4918618 C94.2958361,43.6967674 89.232252,43.829362 86.0273464,40.7880201 C79.9957539,35.0642525 72.1557663,32.0002951 64.0080759,31.9999141 L64,31.9999141 Z" id="Middle" fill="url(#linearGradient-2)"></path>
            <path d="M109.254834,18.745166 C112.379028,21.8693603 112.379028,26.9346802 109.254834,30.0588745 C106.13064,33.1830688 101.06532,33.1830688 97.9411255,30.0588745 C79.1959595,11.3137085 48.8040405,11.3137085 30.0588745,30.0588745 C11.3137085,48.8040405 11.3137085,79.1959595 30.0588745,97.9411255 C48.8040405,116.686291 79.1959595,116.686291 97.9411255,97.9411255 C109.149687,86.7325639 113.962936,70.9868032 111.274595,55.6590341 C110.511324,51.3071844 113.420441,47.160559 117.772291,46.3972871 C122.12414,45.6340152 126.270766,48.5431324 127.034038,52.8949822 C130.613964,73.3061945 124.190652,94.3190162 109.254834,109.254834 C84.2612793,134.248389 43.7387207,134.248389 18.745166,109.254834 C-6.24838867,84.2612793 -6.24838867,43.7387207 18.745166,18.745166 C43.7387207,-6.24838867 84.2612793,-6.24838867 109.254834,18.745166 Z" id="Outer" fill="url(#linearGradient-3)"></path>
        </g>
    </g>
</svg>